<?xml version="1.0" encoding="UTF-8" standalone="no"?>
<!-- Created with Inkscape (http://www.inkscape.org/) -->

<svg
   xmlns:dc="http://purl.org/dc/elements/1.1/"
   xmlns:cc="http://creativecommons.org/ns#"
   xmlns:rdf="http://www.w3.org/1999/02/22-rdf-syntax-ns#"
   xmlns:svg="http://www.w3.org/2000/svg"
   xmlns="http://www.w3.org/2000/svg"
   xmlns:sodipodi="http://sodipodi.sourceforge.net/DTD/sodipodi-0.dtd"
   xmlns:inkscape="http://www.inkscape.org/namespaces/inkscape"
   width="15mm"
   height="15mm"
   viewBox="0 0 53.149606 53.149605"
   id="svg2"
   version="1.1"
   inkscape:version="0.91 r13725"
   sodipodi:docname="Erlen.svg"
   inkscape:export-filename="/home/sylvain/Workspaces/labpal/Assets/images/labpal-1000.png"
   inkscape:export-xdpi="743.34998"
   inkscape:export-ydpi="743.34998">
  <defs
     id="defs4" />
  <sodipodi:namedview
     id="base"
     pagecolor="#ffffff"
     bordercolor="#666666"
     borderopacity="1.0"
     inkscape:pageopacity="0.0"
     inkscape:pageshadow="2"
     inkscape:zoom="5.6"
     inkscape:cx="0.0139304"
     inkscape:cy="53.703282"
     inkscape:document-units="px"
     inkscape:current-layer="layer1"
     showgrid="false"
     fit-margin-top="4"
     fit-margin-left="4"
     fit-margin-right="4"
     fit-margin-bottom="4"
     inkscape:window-width="1280"
     inkscape:window-height="975"
     inkscape:window-x="0"
     inkscape:window-y="25"
     inkscape:window-maximized="1" />
  <metadata
     id="metadata7">
    <rdf:RDF>
      <cc:Work
         rdf:about="">
        <dc:format>image/svg+xml</dc:format>
        <dc:type
           rdf:resource="http://purl.org/dc/dcmitype/StillImage" />
        <dc:title></dc:title>
      </cc:Work>
    </rdf:RDF>
  </metadata>
  <g
     inkscape:label="Layer 1"
     inkscape:groupmode="layer"
     id="layer1"
     transform="translate(-293.49475,-315.2558)">
    <g
       id="g4993"
       transform="translate(3.1342917,7.2824378)">
      <circle
         style="fill:#afafe9;stroke:#8080ff;stroke-width:1;stroke-miterlimit:4;stroke-dasharray:none"
         id="circle4306"
         cx="316.38937"
         cy="326.75626"
         r="2.6172884" />
      <circle
         r="2.1465743"
         cy="330.46161"
         cx="318.57687"
         id="path4304"
         style="fill:#afafe9;stroke:#8080ff" />
      <path
         style="fill:#ffe6d5;fill-rule:evenodd;stroke:#1c1c24;stroke-width:1.20000005;stroke-miterlimit:4;stroke-dasharray:none"
         inkscape:connector-curvature="0"
         label="Layer 1"
         d="m 313.70919,330.98148 c -0.0375,0.007 -0.0678,0.0351 -0.0786,0.0718 -0.0109,0.0367 -3.3e-4,0.0764 0.0271,0.10297 l 0.84319,0.84319 0,5.46791 c -0.15613,0.23766 -0.46264,0.78158 -0.88432,1.55781 -0.43007,0.79177 -0.96782,1.80278 -1.54497,2.90263 -1.15431,2.19888 -2.46722,4.75149 -3.39078,6.59828 -0.59753,1.19528 -0.59479,2.6941 0.30079,3.89267 10e-4,0.002 0.002,0.003 0.003,0.005 0.60827,0.90818 1.66541,1.20844 2.70439,1.20844 l 10.49341,0 c 1.03897,0 2.09605,-0.30026 2.70479,-1.20844 8.2e-4,-0.002 8.2e-4,-0.003 0.002,-0.005 0.89502,-1.19857 0.89831,-2.69739 0.30026,-3.89267 -1.65101,-3.6903 -3.58747,-7.37566 -5.23601,-11.05855 l 0,-5.46808 0.8144,-0.81493 0.0288,-0.0283 c 0.0288,-0.0294 0.037,-0.0731 0.0214,-0.11113 -0.0156,-0.038 -0.0527,-0.0631 -0.0938,-0.0637 l -6.99471,0 c -0.007,-6.9e-4 -0.0137,-6.9e-4 -0.0206,0 l 10e-5,2e-5 z m 0.2699,0.20565 6.49611,0 -0.69676,0.69662 c -0.0197,0.0197 -0.0313,0.0466 -0.0304,0.0746 l 0,5.53726 c -8.2e-4,0.0142 0.002,0.0281 0.007,0.0411 1.65348,3.69598 3.59734,7.38956 5.24671,11.07748 l 0.002,0.002 c 0.56761,1.13522 0.56761,2.55096 -0.28216,3.68371 -8.3e-4,8.3e-4 -0.002,0.002 -0.003,0.002 -0.55774,0.83743 -1.53501,1.12371 -2.53697,1.12371 l -10.49341,0 c -1.00163,0 -1.97924,-0.28628 -2.53739,-1.12371 -8.3e-4,-8.2e-4 -0.002,-0.002 -0.003,-0.002 -0.84986,-1.13275 -0.85043,-2.54849 -0.28281,-3.68371 0.92258,-1.84515 2.23458,-4.39365 3.38823,-6.5917 0.57683,-1.09903 1.1131,-2.11168 1.54243,-2.90206 0.42933,-0.7903 0.75336,-1.36268 0.89205,-1.57064 0.0114,-0.0167 0.0176,-0.0364 0.0179,-0.0566 l 0,-5.53726 c 3.3e-4,-0.0281 -0.0109,-0.055 -0.0308,-0.0746 l -0.69668,-0.69661 z"
         id="path5126" />
      <path
         id="imagebot_9"
         d="m 313.74662,331.09672 0.87404,0.87403 0,5.53726 c -0.58292,0.87445 -3.98431,7.38537 -5.83036,11.07748 -0.58294,1.16566 -0.58136,2.62335 0.2931,3.78901 0.58291,0.87445 1.60091,1.16731 2.62212,1.16731 l 10.49423,0 c 1.02088,0 2.03847,-0.29286 2.62171,-1.16731 0.87445,-1.16566 0.8761,-2.62335 0.29285,-3.78901 -1.65101,-3.69194 -3.59487,-7.38553 -5.2467,-11.07748 l 0,-5.53709 0.84566,-0.84582 0.0288,-0.0282 -6.99512,0 -3.2e-4,-1.3e-4 z"
         label="Layer 1"
         inkscape:connector-curvature="0"
         style="fill:#d7e9fc;fill-rule:evenodd" />
      <path
         id="imagebot_8"
         d="m 313.70919,330.98148 c -0.0375,0.007 -0.0678,0.0351 -0.0786,0.0718 -0.0109,0.0367 -3.3e-4,0.0764 0.0271,0.10297 l 0.84319,0.84319 0,5.46791 c -0.15613,0.23766 -0.46264,0.78158 -0.88432,1.55781 -0.43007,0.79177 -0.96782,1.80278 -1.54497,2.90263 -1.15431,2.19888 -2.46722,4.75149 -3.39078,6.59828 -0.59753,1.19528 -0.59479,2.6941 0.30079,3.89267 10e-4,0.002 0.002,0.003 0.003,0.005 0.60827,0.90818 1.66541,1.20844 2.70439,1.20844 l 10.49341,0 c 1.03897,0 2.09605,-0.30026 2.70479,-1.20844 8.2e-4,-0.002 8.2e-4,-0.003 0.002,-0.005 0.89502,-1.19857 0.89831,-2.69739 0.30026,-3.89267 -1.65101,-3.6903 -3.58747,-7.37566 -5.23601,-11.05855 l 0,-5.46808 0.8144,-0.81493 0.0288,-0.0283 c 0.0288,-0.0294 0.037,-0.0731 0.0214,-0.11113 -0.0156,-0.038 -0.0527,-0.0631 -0.0938,-0.0637 l -6.99471,0 c -0.007,-6.9e-4 -0.0137,-6.9e-4 -0.0206,0 l 10e-5,2e-5 z m 0.2699,0.20565 6.49611,0 -0.69676,0.69662 c -0.0197,0.0197 -0.0313,0.0466 -0.0304,0.0746 l 0,5.53726 c -8.2e-4,0.0142 0.002,0.0281 0.007,0.0411 1.65348,3.69598 3.59734,7.38956 5.24671,11.07748 l 0.002,0.002 c 0.56761,1.13522 0.56761,2.55096 -0.28216,3.68371 -8.3e-4,8.3e-4 -0.002,0.002 -0.003,0.002 -0.55774,0.83743 -1.53501,1.12371 -2.53697,1.12371 l -10.49341,0 c -1.00163,0 -1.97924,-0.28628 -2.53739,-1.12371 -8.3e-4,-8.2e-4 -0.002,-0.002 -0.003,-0.002 -0.84986,-1.13275 -0.85043,-2.54849 -0.28281,-3.68371 0.92258,-1.84515 2.23458,-4.39365 3.38823,-6.5917 0.57683,-1.09903 1.1131,-2.11168 1.54243,-2.90206 0.42933,-0.7903 0.75336,-1.36268 0.89205,-1.57064 0.0114,-0.0167 0.0176,-0.0364 0.0179,-0.0566 l 0,-5.53726 c 3.3e-4,-0.0281 -0.0109,-0.055 -0.0308,-0.0746 l -0.69668,-0.69661 z"
         label="Layer 1"
         inkscape:connector-curvature="0"
         style="fill:#9fabb9;fill-rule:evenodd;stroke:#f4e3d7;stroke-width:0.2;stroke-miterlimit:4;stroke-dasharray:none" />
      <path
         id="imagebot_7"
         d="m 313.90404,341.03972 c -1.1015,1.9153 -2.96803,5.30573 -4.12465,7.48613 -0.49462,0.93186 -0.49287,2.09542 0.24901,3.02728 0.49459,0.69944 1.35892,0.93331 2.22526,0.93331 l 8.90104,0 c 0.86627,0 1.73105,-0.23387 2.22563,-0.93331 0.74188,-0.93186 0.74336,-2.09542 0.24878,-3.02728 -1.18432,-2.49489 -2.53623,-4.99124 -3.77568,-7.48613 l -5.94924,0 -1.5e-4,0 z"
         label="Layer 1"
         inkscape:connector-curvature="0"
         style="fill:#afafe9;fill-rule:evenodd" />
      <path
         id="imagebot_5"
         d="m 319.29976,332.53655 0,5.49433 c 1.90125,3.81134 3.81176,7.621 5.70796,11.43378 0.53032,1.19076 -0.13069,2.57813 -1.27818,3.1879 -1.02356,0.65132 -2.28318,0.39959 -3.43489,0.44434 l -2.4459,0 c 1.45944,-0.17821 2.9484,-0.21178 4.38846,-0.4867 0.94515,-0.2797 2.09432,-0.77839 2.1525,-1.86127 0.059,-1.15561 -0.7057,-2.1338 -1.11293,-3.17831 l -4.39858,-9.53974 0,-5.49441 0.76134,-0.72606 0.42494,0 -0.76472,0.72606 0,8e-5 z"
         label="Layer 1"
         inkscape:connector-curvature="0"
         style="fill:#ffffff;fill-rule:evenodd" />
      <path
         id="imagebot_4"
         d="m 315.09391,331.93286 0,5.65556 c -1.85535,3.92318 -4.08754,7.48844 -5.93738,11.41393 -0.51757,1.22489 -0.10283,2.87919 0.92545,3.59898 1.02828,0.51414 0.7198,0.41132 1.88201,0.54623 0.79531,0 3.75002,-0.051 4.54533,-0.051 -1.42388,-0.18344 -2.8768,-0.21799 -4.2816,-0.50098 -0.92266,-0.28791 -2.04348,-0.80123 -2.09983,-1.91589 -0.0581,-1.18952 0.6882,-2.19641 1.0852,-3.27158 1.43071,-3.27323 2.86142,-6.54646 4.29213,-9.81968 l 0,-5.65564 -0.74348,-0.74737 -0.41395,0 0.74612,0.74737 0,8e-5 z"
         label="Layer 1"
         inkscape:connector-curvature="0"
         style="fill:#000000;fill-opacity:0.17625002;fill-rule:evenodd" />
      <circle
         r="2.6172884"
         cy="323.0369"
         cx="318.46091"
         id="circle4308"
         style="fill:#afafe9;stroke:#8080ff;stroke-width:1;stroke-miterlimit:4;stroke-dasharray:none" />
      <circle
         style="fill:#afafe9;stroke:#8080ff;stroke-width:1;stroke-miterlimit:4;stroke-dasharray:none"
         id="circle4310"
         cx="314.4877"
         cy="318.95908"
         r="3.5949252" />
    </g>
  </g>
</svg>
