<?xml version="1.0" encoding="UTF-8" standalone="no"?>
<!-- Created with Inkscape (http://www.inkscape.org/) -->

<svg
   xmlns:dc="http://purl.org/dc/elements/1.1/"
   xmlns:cc="http://creativecommons.org/ns#"
   xmlns:rdf="http://www.w3.org/1999/02/22-rdf-syntax-ns#"
   xmlns:svg="http://www.w3.org/2000/svg"
   xmlns="http://www.w3.org/2000/svg"
   xmlns:sodipodi="http://sodipodi.sourceforge.net/DTD/sodipodi-0.dtd"
   xmlns:inkscape="http://www.inkscape.org/namespaces/inkscape"
   width="210mm"
   height="297mm"
   viewBox="0 0 744.09448819 1052.3622047"
   id="svg2"
   version="1.1"
   inkscape:version="0.91 r13725"
   sodipodi:docname="Icons.svg">
  <defs
     id="defs4" />
  <sodipodi:namedview
     id="base"
     pagecolor="#ffffff"
     bordercolor="#666666"
     borderopacity="1.0"
     inkscape:pageopacity="0.0"
     inkscape:pageshadow="2"
     inkscape:zoom="1.08"
     inkscape:cx="278.24551"
     inkscape:cy="901.53305"
     inkscape:document-units="px"
     inkscape:current-layer="layer1"
     showgrid="false"
     inkscape:window-width="1366"
     inkscape:window-height="745"
     inkscape:window-x="-8"
     inkscape:window-y="-8"
     inkscape:window-maximized="1" />
  <metadata
     id="metadata7">
    <rdf:RDF>
      <cc:Work
         rdf:about="">
        <dc:format>image/svg+xml</dc:format>
        <dc:type
           rdf:resource="http://purl.org/dc/dcmitype/StillImage" />
        <dc:title></dc:title>
      </cc:Work>
    </rdf:RDF>
  </metadata>
  <g
     inkscape:label="Layer 1"
     inkscape:groupmode="layer"
     id="layer1">
    <rect
       style="opacity:1;fill:#afe9af;fill-opacity:1;stroke:#000000;stroke-width:1;stroke-linecap:round;stroke-linejoin:round;stroke-miterlimit:4;stroke-dasharray:none;stroke-dashoffset:0"
       id="rect4140"
       width="68.571426"
       height="65.714287"
       x="57.724854"
       y="62.547382"
       ry="5.5555553"
       inkscape:export-xdpi="31.049999"
       inkscape:export-ydpi="31.049999" />
    <g
       style="font-style:normal;font-weight:normal;font-size:40px;line-height:125%;font-family:sans-serif;letter-spacing:0px;word-spacing:0px;fill:#000000;fill-opacity:1;stroke:none;stroke-width:1px;stroke-linecap:butt;stroke-linejoin:miter;stroke-opacity:1"
       id="text4136"
       transform="matrix(1.8410992,0,0,1.8410992,-537.11065,-222.80182)"
       inkscape:export-xdpi="31.049999"
       inkscape:export-ydpi="31.049999">
      <path
         d="m 334.56195,171.14011 q 0.76172,0 1.15234,1.25 0.78125,2.34375 1.11329,2.34375 0.2539,0 0.52734,-0.39063 5.48828,-8.06641 10.15625,-11.48437 1.97266,-1.44532 3.84766,-1.44532 2.48046,0 2.98828,0.15625 0.21484,0.0586 0.21484,0.48828 0,0.35157 -0.44922,0.87891 -12.55859,14.41406 -14.96094,18.75 -0.82031,1.48438 -3.78906,1.48438 -0.97656,0 -2.05078,-0.50782 -0.44922,-0.23437 -1.5625,-2.98828 -1.40625,-3.47656 -1.40625,-6.09375 0,-0.95703 1.36719,-1.58203 1.875,-0.85937 2.8125,-0.85937 l 0.0391,0 z"
         id="path4143"
         inkscape:connector-curvature="0"
         style="fill:#000000" />
    </g>
    <rect
       ry="5.5555553"
       y="62.547382"
       x="153.09523"
       height="65.714287"
       width="68.571426"
       id="rect4145"
       style="opacity:1;fill:#ff5555;fill-opacity:1;stroke:#000000;stroke-width:1;stroke-linecap:round;stroke-linejoin:round;stroke-miterlimit:4;stroke-dasharray:none;stroke-dashoffset:0"
       inkscape:export-xdpi="31.049999"
       inkscape:export-ydpi="31.049999" />
    <g
       style="font-style:normal;font-weight:normal;font-size:60.04011917px;line-height:125%;font-family:sans-serif;letter-spacing:0px;word-spacing:0px;fill:#000000;fill-opacity:1;stroke:none;stroke-width:1px;stroke-linecap:butt;stroke-linejoin:miter;stroke-opacity:1"
       id="text4151"
       inkscape:export-xdpi="31.049999"
       inkscape:export-ydpi="31.049999">
      <path
         d="m 200.48473,72.791875 q 0.85018,0 1.64172,0.879494 0.58633,0.644962 0.82086,2.345317 0.76223,-0.02932 1.05539,0.117266 0.93813,0.351797 1.34856,0.762228 0.41043,0.381114 0.41043,0.99676 0,1.172658 -0.46906,1.641722 -7.06527,6.420305 -13.95464,15.596359 4.33884,5.980559 8.67767,10.729829 0.49838,0.52769 0.49838,1.23129 0,1.4365 -0.87949,2.19873 -0.58633,0.49838 -1.67104,0.55702 -0.0586,0.49838 -0.46906,1.52445 -0.7036,1.70036 -1.64172,1.70036 -1.0554,0 -1.93489,-0.7036 -0.23453,0.5277 -0.64496,0.85018 -1.0554,0.79154 -1.84694,0.79154 -0.67428,0 -1.43651,-0.82086 -2.60916,-2.78506 -6.15645,-8.38451 -6.74279,7.6516 -9.32264,11.60932 -0.49838,0.76223 -1.11403,0.76223 l -0.0586,0 q -0.52769,0 -1.02607,-1.05539 -0.43975,-0.90881 -0.49838,-1.28993 -0.58633,0.3518 -1.11403,0.3518 -0.73291,0 -1.58309,-0.87949 -1.05539,-1.02608 -1.05539,-1.52446 0,-0.79154 0.87949,-2.11078 -0.26385,-0.088 -0.52769,-0.46907 -0.5277,-0.70359 -0.5277,-1.40719 0,-0.61564 0.70359,-1.52445 3.81114,-5.1597 9.55717,-11.374791 -3.57661,-5.540812 -6.47894,-13.368308 -0.64496,-1.788304 -0.64496,-2.609165 0,-0.762228 0.67428,-2.198735 0.46906,-0.938127 1.11403,-0.938127 0.76222,0 2.16941,1.143342 0.0293,-0.41043 0.3518,-1.143342 0.67428,-1.465823 1.17266,-1.465823 1.26061,0 1.64172,0.762228 3.10755,5.746027 7.50502,11.198889 6.7721,-7.739546 14.0719,-14.130536 0.3518,-0.351797 0.76223,-0.351797 z"
         style=""
         id="path4156" />
    </g>
    <rect
       style="opacity:1;fill:#ececec;fill-opacity:1;stroke:#000000;stroke-width:1;stroke-linecap:round;stroke-linejoin:round;stroke-miterlimit:4;stroke-dasharray:none;stroke-dashoffset:0"
       id="rect4158"
       width="68.571426"
       height="65.714287"
       x="241.98412"
       y="62.547382"
       ry="5.5555553"
       inkscape:export-xdpi="31.049999"
       inkscape:export-ydpi="31.049999" />
    <rect
       style="opacity:1;fill:#000000;fill-opacity:1;stroke:none;stroke-width:1;stroke-linecap:round;stroke-linejoin:round;stroke-miterlimit:4;stroke-dasharray:none;stroke-dashoffset:0"
       id="rect4164"
       width="38.888889"
       height="7.4074073"
       x="250"
       y="75.510353"
       ry="3.7037036"
       inkscape:export-xdpi="31.049999"
       inkscape:export-ydpi="31.049999" />
    <rect
       ry="3.7037036"
       y="91.251091"
       x="250"
       height="7.4074073"
       width="38.888889"
       id="rect4166"
       style="opacity:1;fill:#000000;fill-opacity:1;stroke:none;stroke-width:1;stroke-linecap:round;stroke-linejoin:round;stroke-miterlimit:4;stroke-dasharray:none;stroke-dashoffset:0"
       inkscape:export-xdpi="31.049999"
       inkscape:export-ydpi="31.049999" />
    <rect
       style="opacity:1;fill:#000000;fill-opacity:1;stroke:none;stroke-width:1;stroke-linecap:round;stroke-linejoin:round;stroke-miterlimit:4;stroke-dasharray:none;stroke-dashoffset:0"
       id="rect4168"
       width="38.888889"
       height="7.4074073"
       x="250"
       y="106.0659"
       ry="3.7037036"
       inkscape:export-xdpi="31.049999"
       inkscape:export-ydpi="31.049999" />
    <path
       sodipodi:type="star"
       style="opacity:1;fill:#000000;fill-opacity:1;stroke:none;stroke-width:1;stroke-linecap:round;stroke-linejoin:round;stroke-miterlimit:4;stroke-dasharray:none;stroke-dashoffset:0"
       id="path4170"
       sodipodi:sides="3"
       sodipodi:cx="134.25926"
       sodipodi:cy="211.62146"
       sodipodi:r1="21.852636"
       sodipodi:r2="10.926318"
       sodipodi:arg1="0.52359878"
       sodipodi:arg2="1.5707963"
       inkscape:flatsided="true"
       inkscape:rounded="0"
       inkscape:randomized="0"
       d="m 153.1842,222.54778 -37.84988,0 18.92494,-32.77896 z"
       transform="matrix(0,-0.41288522,0.41288522,0,211.83167,150.38845)"
       inkscape:transform-center-x="2.2556528"
       inkscape:export-xdpi="31.049999"
       inkscape:export-ydpi="31.049999" />
    <rect
       style="opacity:1;fill:#aaeeff;fill-opacity:1;stroke:#000000;stroke-width:1;stroke-linecap:round;stroke-linejoin:round;stroke-miterlimit:4;stroke-dasharray:none;stroke-dashoffset:0"
       id="rect4172"
       width="68.571426"
       height="65.714287"
       x="332.72485"
       y="62.547382"
       ry="5.5555553"
       inkscape:export-xdpi="31.049999"
       inkscape:export-ydpi="31.049999" />
    <path
       d="m 307.02086,99.466104 -15.62766,0 7.81383,-13.533946 z"
       inkscape:randomized="0"
       inkscape:rounded="0"
       inkscape:flatsided="true"
       sodipodi:arg2="1.5707963"
       sodipodi:arg1="0.52359878"
       sodipodi:r2="4.5113153"
       sodipodi:r1="9.0226307"
       sodipodi:cy="94.954788"
       sodipodi:cx="299.20703"
       sodipodi:sides="3"
       id="path4178"
       style="opacity:1;fill:#000000;fill-opacity:1;stroke:none;stroke-width:1;stroke-linecap:round;stroke-linejoin:round;stroke-miterlimit:4;stroke-dasharray:none;stroke-dashoffset:0"
       sodipodi:type="star"
       transform="matrix(0,2.3627314,-2.3627314,0,587.11481,-610.60219)"
       inkscape:transform-center-x="-5.3295217"
       inkscape:transform-center-y="-1.1590052e-005"
       inkscape:export-xdpi="31.049999"
       inkscape:export-ydpi="31.049999" />
    <rect
       ry="5.5555553"
       y="62.547382"
       x="419.7619"
       height="65.714287"
       width="68.571426"
       id="rect4180"
       style="opacity:1;fill:#ffffff;fill-opacity:1;stroke:#000000;stroke-width:1;stroke-linecap:round;stroke-linejoin:round;stroke-miterlimit:4;stroke-dasharray:none;stroke-dashoffset:0"
       inkscape:export-xdpi="31.049999"
       inkscape:export-ydpi="31.049999" />
    <g
       style="font-style:normal;font-weight:normal;font-size:60.36291504px;line-height:125%;font-family:sans-serif;letter-spacing:0px;word-spacing:0px;fill:#000000;fill-opacity:1;stroke:none;stroke-width:1px;stroke-linecap:butt;stroke-linejoin:miter;stroke-opacity:1"
       id="text4184"
       transform="translate(1.8518519,-0.92592593)"
       inkscape:export-xdpi="31.049999"
       inkscape:export-ydpi="31.049999">
      <path
         d="m 464.81903,94.292894 6.07166,0 0,19.570786 -0.70737,0 q -0.41264,0 -1.26739,0.20632 -0.85475,0.20632 -1.73897,0.44211 -1.03159,0.29474 -2.21056,0.64843 -0.56,0.26527 -2.06318,0.47159 -1.47371,0.17684 -3.50742,0.29474 -2.00423,0.11789 -4.33269,0.20632 -2.32845,0.0589 -4.56848,0.0884 -2.24003,0.0295 -4.18532,0.0295 -1.91581,0 -3.09478,0 -1.00212,0 -1.79792,-0.41263 -0.7958,-0.41264 -1.4737,-1.09054 -0.6779,-0.67791 -1.29686,-1.50318 -0.58948,-0.85475 -1.23791,-1.7095 -0.35369,-0.47158 -0.53053,-0.94317 -0.17685,-0.47159 -0.32422,-0.94317 -0.14737,-0.50106 -0.32421,-1.03159 -0.14737,-0.56001 -0.47159,-1.20844 -0.23579,-0.47159 -0.58948,-0.9137 -0.35369,-0.44211 -0.73685,-0.94317 -0.38317,-0.53053 -0.73685,-1.12001 -0.35369,-0.58948 -0.56001,-1.35581 -0.0884,-0.32422 -0.20632,-0.97264 -0.0884,-0.64843 -0.20632,-1.32634 -0.1179,-0.70738 -0.23579,-1.326332 -0.0884,-0.618956 -0.17685,-0.884222 -0.0884,-0.265267 -0.29474,-0.736852 -0.20632,-0.50106 -0.47158,-1.002119 -0.26527,-0.501059 -0.53054,-0.943171 -0.23579,-0.471585 -0.35368,-0.648429 -0.2358,-0.412638 -0.32422,-0.884223 -0.0884,-0.471585 -0.0884,-0.94317 0,-1.061067 0.44211,-1.915815 0.44211,-0.854749 1.20844,-0.972645 0.7958,-0.117896 1.88634,-0.235793 1.12001,-0.14737 2.3874,-0.294741 1.26738,-0.14737 2.62319,-0.265266 1.38528,-0.147371 2.68214,-0.294741 3.06531,-0.324215 6.42535,-0.64843 -0.6779,-1.061067 -1.32633,-2.063185 -0.56001,-0.854749 -1.20844,-1.797919 -0.64843,-0.972645 -1.14949,-1.650549 -0.91369,-1.208437 -1.38528,-3.1832 -0.47159,-1.974764 -0.47159,-4.126371 0,-0.294741 0,-0.589482 0,-0.294741 0.0295,-0.589482 0.0884,-1.149489 0.70738,-1.797918 0.61895,-0.64843 1.44423,-0.64843 0.85474,0 1.73897,0.825274 0.91369,0.7958 1.44423,2.564245 0.26526,0.884222 0.91369,2.181082 0.64843,1.267385 1.62108,2.623193 0.97264,1.326333 2.24003,2.623193 1.29686,1.267385 2.80004,2.151608 4.12637,2.3874 6.60219,4.656904 2.5053,2.269504 2.91793,4.33269 z"
         id="path4189"
         inkscape:connector-curvature="0" />
    </g>
  </g>
</svg>
